<?xml version="1.0" encoding="UTF-8"?><svg version="1.1" width="132px" height="24px" viewBox="0 0 132.0 24.0" xmlns="http://www.w3.org/2000/svg" xmlns:xlink="http://www.w3.org/1999/xlink"><defs><clipPath id="i0"><path d="M132,0 L132,24 L0,24 L0,0 L132,0 Z"></path></clipPath><clipPath id="i1"><path d="M90,0 L90,16 L0,16 L0,0 L90,0 Z"></path></clipPath><clipPath id="i2"><path d="M4.5,0 C6.98528137,0 9,1.790861 9,4 C9,6.209139 6.98528137,8 4.5,8 C2.01471863,8 0,6.209139 0,4 C0,1.790861 2.01471863,0 4.5,0 Z"></path></clipPath></defs><g clip-path="url(#i0)"><g transform="translate(15.0 -2.0)"><g clip-path="url(#i1)"><text transform="translate(14.880000000000003 11.0)" font-family="HelveticaNeue, Helvetica Neue" font-size="12.0" font-weight="normal" fill="#000000" text-anchor="center">Febuary 22</text></g><g transform="translate(43.0 18.0)"><g clip-path="url(#i2)"><polygon points="0,0 9,0 9,8 0,8 0,0" stroke="none" fill="#FFFFFF"></polygon><path d="M4.5,8 C6.98528137,8 9,6.209139 9,4 C9,1.790861 6.98528137,0 4.5,0 C2.01471863,0 0,1.790861 0,4 C0,6.209139 2.01471863,8 4.5,8 Z" stroke="#969696" stroke-width="2" fill="none" stroke-miterlimit="5"></path></g></g></g></g></svg>