<?xml version="1.0" encoding="UTF-8"?>
<svg version="1.1" width="652px" height="72px" viewBox="0 0 652.0 72.0" xmlns="http://www.w3.org/2000/svg"
     xmlns:xlink="http://www.w3.org/1999/xlink">
    <defs>
        <clipPath id="i0">
            <path d="M652,0 L652,72 L0,72 L0,0 L652,0 Z"></path>
        </clipPath>
        <clipPath id="i1">
            <path d="M90,0 L90,16 L0,16 L0,0 L90,0 Z"></path>
        </clipPath>
        <clipPath id="i2">
            <path d="M4.5,0 C6.98528137,0 9,1.790861 9,4 C9,6.209139 6.98528137,8 4.5,8 C2.01471863,8 0,6.209139 0,4 C0,1.790861 2.01471863,0 4.5,0 Z"></path>
        </clipPath>
        <clipPath id="i3">
            <path d="M146,0 L146,19 L0,19 L0,0 L146,0 Z"></path>
        </clipPath>
        <clipPath id="i4">
            <path d="M27.2888544,5.36656315 C28.062964,5.75361795 28.690654,6.38130792 29.0777088,7.15541753 L48.1055728,45.2111456 C49.0935298,47.1870596 48.2926324,49.5897518 46.3167184,50.5777088 C45.7612967,50.8554196 45.1488444,51 44.527864,51 L6.47213595,51 C4.26299696,51 2.47213595,49.209139 2.47213595,47 C2.47213595,46.3790196 2.61671632,45.7665674 2.89442719,45.2111456 L21.9222912,7.15541753 C22.9102482,5.17950354 25.3129404,4.37860615 27.2888544,5.36656315 Z"></path>
        </clipPath>
    </defs>
    <g clip-path="url(#i0)">
        <g transform="translate(17.0 31.0)">
            <path d="M0,0 L0,12 L617,12 L617,0" stroke="#969696" stroke-width="1" fill="none"
                  stroke-miterlimit="10"></path>
        </g>
        <g transform="translate(17.0 15.0)">
            <g clip-path="url(#i1)">
                <text transform="translate(0.0 11.0)" font-family="HelveticaNeue, Helvetica Neue" font-size="12.0"
                      font-weight="normal" fill="#000000">January 1 2020
                </text>
            </g>
        </g>
        <g transform="translate(107.0 21.0)">
            <g clip-path="url(#i1)">
                <text transform="translate(14.880000000000003 11.0)" font-family="HelveticaNeue, Helvetica Neue"
                      font-size="12.0" font-weight="normal" fill="#000000" text-anchor="center">Febuary 22
                </text>
            </g>
            <g transform="translate(43.0 18.0)">
                <g clip-path="url(#i2)">
                    <polygon points="0,0 9,0 9,8 0,8 0,0" stroke="none" fill="#FFFFFF"></polygon>
                    <path d="M4.5,8 C6.98528137,8 9,6.209139 9,4 C9,1.790861 6.98528137,0 4.5,0 C2.01471863,0 0,1.790861 0,4 C0,6.209139 2.01471863,8 4.5,8 Z"
                          stroke="#969696" stroke-width="2" fill="none" stroke-miterlimit="5"></path>
                </g>
            </g>
        </g>
        <g transform="translate(488.0 15.0)">
            <g clip-path="url(#i3)">
                <text transform="translate(25.964 11.0)" font-family="HelveticaNeue, Helvetica Neue" font-size="12.0"
                      font-weight="normal" fill="#000000" text-anchor="right">(now) August 27, 2022
                </text>
            </g>
        </g>
        <g transform="translate(371.0000000000002 18.000000000000004) rotate(90.00000000000001)">
            <path d="M29.0777088,7.15541753 L48.1055728,45.2111456 C49.0935298,47.1870596 48.2926324,49.5897518 46.3167184,50.5777088 C45.7612967,50.8554196 45.1488444,51 44.527864,51 L6.47213595,51 C4.26299696,51 2.47213595,49.209139 2.47213595,47 C2.47213595,46.3790196 2.61671632,45.7665674 2.89442719,45.2111456 L21.9222912,7.15541753 C22.9102482,5.17950354 25.3129404,4.37860615 27.2888544,5.36656315 C28.062964,5.75361795 28.690654,6.38130792 29.0777088,7.15541753 Z"
                  stroke="#6DD400" stroke-width="2" fill="none" stroke-miterlimit="5"></path>
            <g clip-path="url(#i4)">
                <polygon
                        points="2.47213595,4.94339568 48.5287403,4.94339568 48.5287403,51 2.47213595,51 2.47213595,4.94339568"
                        stroke="none" fill="#EAFFD5"></polygon>
            </g>
        </g>
    </g>
</svg>
