<?xml version="1.0" encoding="UTF-8"?><svg version="1.1" width="652px" height="72px" viewBox="0 0 652.0 72.0" xmlns="http://www.w3.org/2000/svg" xmlns:xlink="http://www.w3.org/1999/xlink"><defs><clipPath id="i0"><path d="M652,0 L652,72 L0,72 L0,0 L652,0 Z"></path></clipPath><clipPath id="i1"><path d="M90,0 L90,16 L0,16 L0,0 L90,0 Z"></path></clipPath><clipPath id="i2"><path d="M4.5,0 C6.98528137,0 9,1.790861 9,4 C9,6.209139 6.98528137,8 4.5,8 C2.01471863,8 0,6.209139 0,4 C0,1.790861 2.01471863,0 4.5,0 Z"></path></clipPath><clipPath id="i3"><path d="M146,0 L146,19 L0,19 L0,0 L146,0 Z"></path></clipPath><clipPath id="i4"><path d="M12,0 C14.209139,-4.05812251e-16 16,1.790861 16,4 L16,44 C16,46.209139 14.209139,48 12,48 L4,48 C1.790861,48 2.705415e-16,46.209139 0,44 L0,4 C-2.705415e-16,1.790861 1.790861,-9.26455379e-16 4,0 L12,0 Z"></path></clipPath><clipPath id="i5"><path d="M24.096755,0 L10.1148934,24 L24.096755,48 L13.9818615,48 L0,24 L13.9818615,0 L24.096755,0 Z"></path></clipPath></defs><g clip-path="url(#i0)"><g transform="translate(17.0 31.0)"><path d="M0,0 L0,12 L617,12 L617,0" stroke="#969696" stroke-width="1" fill="none" stroke-miterlimit="10"></path></g><g transform="translate(17.0 15.0)"><g clip-path="url(#i1)"><text transform="translate(0.0 11.0)" font-family="HelveticaNeue, Helvetica Neue" font-size="12.0" font-weight="normal" fill="#000000">January 1 2020</text></g></g><g transform="translate(107.0 21.0)"><g clip-path="url(#i1)"><text transform="translate(14.880000000000003 11.0)" font-family="HelveticaNeue, Helvetica Neue" font-size="12.0" font-weight="normal" fill="#000000" text-anchor="center">Febuary 22</text></g><g transform="translate(43.0 18.0)"><g clip-path="url(#i2)"><polygon points="0,0 9,0 9,8 0,8 0,0" stroke="none" fill="#FFFFFF"></polygon><path d="M4.5,8 C6.98528137,8 9,6.209139 9,4 C9,1.790861 6.98528137,0 4.5,0 C2.01471863,0 0,1.790861 0,4 C0,6.209139 2.01471863,8 4.5,8 Z" stroke="#969696" stroke-width="2" fill="none" stroke-miterlimit="5"></path></g></g></g><g transform="translate(488.0 15.0)"><g clip-path="url(#i3)"><text transform="translate(25.964 11.0)" font-family="HelveticaNeue, Helvetica Neue" font-size="12.0" font-weight="normal" fill="#000000" text-anchor="right">(now) August 27, 2022</text></g></g><g transform="translate(324.0 20.0)"><g clip-path="url(#i4)"><polygon points="0,0 16,0 16,48 0,48 0,0" stroke="none" fill="#FFE0E0"></polygon></g><path d="M4,0 L12,0 C14.209139,-4.05812251e-16 16,1.790861 16,4 L16,44 C16,46.209139 14.209139,48 12,48 L4,48 C1.790861,48 2.705415e-16,46.209139 0,44 L0,4 C-2.705415e-16,1.790861 1.790861,-9.26455379e-16 4,0 Z" stroke="#FF8080" stroke-width="1" fill="none" stroke-miterlimit="10"></path><g transform="translate(20.0 0.0)"><g clip-path="url(#i4)"><polygon points="0,0 16,0 16,48 0,48 0,0" stroke="none" fill="#FFE0E0"></polygon></g><path d="M4,0 L12,0 C14.209139,-4.05812251e-16 16,1.790861 16,4 L16,44 C16,46.209139 14.209139,48 12,48 L4,48 C1.790861,48 2.705415e-16,46.209139 0,44 L0,4 C-2.705415e-16,1.790861 1.790861,-9.26455379e-16 4,0 Z" stroke="#FF8080" stroke-width="1" fill="none" stroke-miterlimit="10"></path></g></g><g transform="translate(296.0 20.0)"><g clip-path="url(#i5)"><polygon points="0,0 24.096755,0 24.096755,48 0,48 0,0" stroke="none" fill="#727272"></polygon></g><polygon points="13.9818615,0 24.096755,0 10.1148934,24 24.096755,48 13.9818615,48 0,24 13.9818615,0 13.9818615,0" stroke="#000000" stroke-width="1" fill="none" stroke-linejoin="round"></polygon></g></g></svg>