<?xml version="1.0" encoding="UTF-8"?><svg version="1.1" width="231px" height="92px" viewBox="0 0 231.0 92.0" xmlns="http://www.w3.org/2000/svg" xmlns:xlink="http://www.w3.org/1999/xlink"><defs><clipPath id="i0"><path d="M231,0 L231,92 L0,92 L0,0 L231,0 Z"></path></clipPath><clipPath id="i1"><path d="M30.5,2.30940108 L45.4496732,10.9405989 C47.9248818,12.3696613 49.4496732,15.0106774 49.4496732,17.8688022 L49.4496732,35.1311978 C49.4496732,37.9893226 47.9248818,40.6303387 45.4496732,42.0594011 L30.5,50.6905989 C28.0247914,52.1196613 24.9752086,52.1196613 22.5,50.6905989 L7.5503268,42.0594011 C5.07511819,40.6303387 3.5503268,37.9893226 3.5503268,35.1311978 L3.5503268,17.8688022 C3.5503268,15.0106774 5.07511819,12.3696613 7.5503268,10.9405989 L22.5,2.30940108 C24.9752086,0.880338717 28.0247914,0.880338717 30.5,2.30940108 Z"></path></clipPath></defs><g clip-path="url(#i0)"><g transform="translate(4.0 -1.0)"><g transform="translate(51.0 0.0)"><g clip-path="url(#i1)"><polygon points="3.5503268,1.23760431 49.4496732,1.23760431 49.4496732,51.7623957 3.5503268,51.7623957 3.5503268,1.23760431" stroke="none" fill="#000000"></polygon><path d="M30.5,2.30940108 L45.4496732,10.9405989 C47.9248818,12.3696613 49.4496732,15.0106774 49.4496732,17.8688022 L49.4496732,35.1311978 C49.4496732,37.9893226 47.9248818,40.6303387 45.4496732,42.0594011 L30.5,50.6905989 C28.0247914,52.1196613 24.9752086,52.1196613 22.5,50.6905989 L7.5503268,42.0594011 C5.07511819,40.6303387 3.5503268,37.9893226 3.5503268,35.1311978 L3.5503268,17.8688022 C3.5503268,15.0106774 5.07511819,12.3696613 7.5503268,10.9405989 L22.5,2.30940108 C24.9752086,0.880338717 28.0247914,0.880338717 30.5,2.30940108 Z" stroke="#000000" stroke-width="2" fill="none" stroke-miterlimit="5"></path></g></g><g transform="translate(0.0 20.0)"><text transform="translate(24.756 11.0)" font-family="HelveticaNeue, Helvetica Neue" font-size="12.0" font-weight="normal" fill="#000000" text-anchor="right">100k</text></g></g><g transform="translate(103.0 -1.0)"><g clip-path="url(#i1)"><polygon points="3.5503268,1.23760431 49.4496732,1.23760431 49.4496732,51.7623957 3.5503268,51.7623957 3.5503268,1.23760431" stroke="none" fill="#A7A7A7"></polygon><path d="M30.5,2.30940108 L45.4496732,10.9405989 C47.9248818,12.3696613 49.4496732,15.0106774 49.4496732,17.8688022 L49.4496732,35.1311978 C49.4496732,37.9893226 47.9248818,40.6303387 45.4496732,42.0594011 L30.5,50.6905989 C28.0247914,52.1196613 24.9752086,52.1196613 22.5,50.6905989 L7.5503268,42.0594011 C5.07511819,40.6303387 3.5503268,37.9893226 3.5503268,35.1311978 L3.5503268,17.8688022 C3.5503268,15.0106774 5.07511819,12.3696613 7.5503268,10.9405989 L22.5,2.30940108 C24.9752086,0.880338717 28.0247914,0.880338717 30.5,2.30940108 Z" stroke="#A7A7A7" stroke-width="2" fill="none" stroke-miterlimit="5"></path></g><g transform="translate(53.0 20.0)"><text transform="translate(0.0 11.0)" font-family="HelveticaNeue, Helvetica Neue" font-size="12.0" font-weight="normal" fill="#000000" text-anchor="left">100k</text></g></g><g transform="translate(30.0 40.0)"><g transform="translate(49.0 0.0)"><g clip-path="url(#i1)"><polygon points="3.5503268,1.23760431 49.4496732,1.23760431 49.4496732,51.7623957 3.5503268,51.7623957 3.5503268,1.23760431" stroke="none" fill="#D7D7D7"></polygon><path d="M30.5,2.30940108 L45.4496732,10.9405989 C47.9248818,12.3696613 49.4496732,15.0106774 49.4496732,17.8688022 L49.4496732,35.1311978 C49.4496732,37.9893226 47.9248818,40.6303387 45.4496732,42.0594011 L30.5,50.6905989 C28.0247914,52.1196613 24.9752086,52.1196613 22.5,50.6905989 L7.5503268,42.0594011 C5.07511819,40.6303387 3.5503268,37.9893226 3.5503268,35.1311978 L3.5503268,17.8688022 C3.5503268,15.0106774 5.07511819,12.3696613 7.5503268,10.9405989 L22.5,2.30940108 C24.9752086,0.880338717 28.0247914,0.880338717 30.5,2.30940108 Z" stroke="#969696" stroke-width="2" fill="none" stroke-miterlimit="5"></path></g></g><g transform="translate(0.0 20.0)"><text transform="translate(24.756 11.0)" font-family="HelveticaNeue, Helvetica Neue" font-size="12.0" font-weight="normal" fill="#000000" text-anchor="right">100k</text></g></g><g transform="translate(127.0 40.0)"><g clip-path="url(#i1)"><polygon points="3.5503268,1.23760431 49.4496732,1.23760431 49.4496732,51.7623957 3.5503268,51.7623957 3.5503268,1.23760431" stroke="none" fill="#FFFFFF"></polygon><path d="M30.5,2.30940108 L45.4496732,10.9405989 C47.9248818,12.3696613 49.4496732,15.0106774 49.4496732,17.8688022 L49.4496732,35.1311978 C49.4496732,37.9893226 47.9248818,40.6303387 45.4496732,42.0594011 L30.5,50.6905989 C28.0247914,52.1196613 24.9752086,52.1196613 22.5,50.6905989 L7.5503268,42.0594011 C5.07511819,40.6303387 3.5503268,37.9893226 3.5503268,35.1311978 L3.5503268,17.8688022 C3.5503268,15.0106774 5.07511819,12.3696613 7.5503268,10.9405989 L22.5,2.30940108 C24.9752086,0.880338717 28.0247914,0.880338717 30.5,2.30940108 Z" stroke="#FFFFFF" stroke-width="2" fill="none" stroke-miterlimit="5"></path></g><g transform="translate(53.0 20.0)"><text transform="translate(0.0 11.0)" font-family="HelveticaNeue, Helvetica Neue" font-size="12.0" font-weight="normal" fill="#000000" text-anchor="left">100k</text></g></g></g></svg>